<?xml version="1.0" encoding="UTF-8"?>
<svg xmlns="http://www.w3.org/2000/svg" viewBox="0 0 3 2">
  <!-- Field -->
  <rect width="3" height="2" fill="#fff"/>
  <!-- Taegeuk (constructed with a mask for correct yin-yang curve) -->
  <defs>
    <mask id="tg">
      <rect width="3" height="2" fill="#000"/>
      <circle cx="1.5" cy="1" r="0.6" fill="#fff"/>
    </mask>
    <clipPath id="tgclip">
      <circle cx="1.5" cy="1" r="0.6"/>
    </clipPath>
  </defs>
  <g clip-path="url(#tgclip)">
    <rect x="0.9" y="0.4" width="1.2" height="1.2" fill="#cd2e3a"/>
    <rect x="0.9" y="0.4" width="1.2" height="0.6" fill="#cd2e3a"/>
    <rect x="0.9" y="1" width="1.2" height="0.6" fill="#0047a0"/>
    <g mask="url(#tg)">
      <circle cx="1.5" cy="0.7" r="0.3" fill="#cd2e3a"/>
      <circle cx="1.5" cy="1.3" r="0.3" fill="#0047a0"/>
    </g>
  </g>

  <!-- Trigram helper: bar function -->
  <g id="bar">
    <rect x="-0.35" y="-0.03" width="0.7" height="0.06" fill="#000"/>
  </g>

  <!-- Geon (☰) upper-left: three solid bars -->
  <g transform="translate(0.6,0.5) rotate(-45)">
    <use href="#bar" y="-0.18"/>
    <use href="#bar" y="0"/>
    <use href="#bar" y="0.18"/>
  </g>

  <!-- Gam (☵) upper-right: solid, split, solid -->
  <g transform="translate(2.4,0.5) rotate(45)">
    <use href="#bar" y="-0.18"/>
    <g>
      <rect x="-0.35" y="-0.03" width="0.28" height="0.06" fill="#000"/>
      <rect x="0.07"  y="-0.03" width="0.28" height="0.06" fill="#000"/>
    </g>
    <use href="#bar" y="0.18"/>
  </g>

  <!-- Ri (☲) lower-left: split, solid, split -->
  <g transform="translate(0.6,1.5) rotate(45)">
    <g transform="translate(0,-0.18)">
      <rect x="-0.35" y="-0.03" width="0.28" height="0.06" fill="#000"/>
      <rect x="0.07"  y="-0.03" width="0.28" height="0.06" fill="#000"/>
    </g>
    <use href="#bar"/>
    <g transform="translate(0,0.18)">
      <rect x="-0.35" y="-0.03" width="0.28" height="0.06" fill="#000"/>
      <rect x="0.07"  y="-0.03" width="0.28" height="0.06" fill="#000"/>
    </g>
  </g>

  <!-- Gon (☷) lower-right: three split bars -->
  <g transform="translate(2.4,1.5) rotate(-45)">
    <g transform="translate(0,-0.18)">
      <rect x="-0.35" y="-0.03" width="0.28" height="0.06" fill="#000"/>
      <rect x="0.07"  y="-0.03" width="0.28" height="0.06" fill="#000"/>
    </g>
    <g>
      <rect x="-0.35" y="-0.03" width="0.28" height="0.06" fill="#000"/>
      <rect x="0.07"  y="-0.03" width="0.28" height="0.06" fill="#000"/>
    </g>
    <g transform="translate(0,0.18)">
      <rect x="-0.35" y="-0.03" width="0.28" height="0.06" fill="#000"/>
      <rect x="0.07"  y="-0.03" width="0.28" height="0.06" fill="#000"/>
    </g>
  </g>
</svg>
